<svg xmlns="http://www.w3.org/2000/svg" version="1.1" xmlns:xlink="http://www.w3.org/1999/xlink" xmlns:svgjs="http://svgjs.com/svgjs" width="512" height="512" x="0" y="0" viewBox="0 0 24 24" style="enable-background:new 0 0 512 512" xml:space="preserve" class=""><g><path xmlns="http://www.w3.org/2000/svg" id="path2" d="m12 2c-5.519 0-10 4.481-10 10s4.481 10 10 10 10-4.481 10-10-4.481-10-10-10zm0 2c4.415 0 8 3.585 8 8s-3.585 8-8 8-8-3.585-8-8 3.585-8 8-8zm0 10.993c.552 0 1 .448 1 1s-.448 1-1 1-1-.448-1-1 .448-1 1-1zm1-1.993v-6c0-.552-.448-1-1-1s-1 .448-1 1v6c0 .552.448 1 1 1s1-.448 1-1z" data-original="#000000" class=""></path></g></svg>